<svg width="67" height="41" viewBox="0 0 67 41" fill="none" xmlns="http://www.w3.org/2000/svg">
<path d="M35.1 1.1C34.1 0.199999 32.4 0.199999 31.4 1.1L0.200012 30.6L9.80001 39.7C10.3 40.2 10.9 40.4 11.6 40.4C12.3 40.4 12.9 40.1 13.4 39.7L22.4 31.2L31.4 39.7C31.9 40.2 32.5 40.4 33.2 40.4C33.9 40.4 34.5 40.1 35 39.7L44 31.2L53 39.7C53.5 40.2 54.1 40.4 54.8 40.4C55.5 40.4 56.1 40.1 56.6 39.7L66.2 30.6L35.1 1.1Z" fill="#FFFFFE"/>
<path d="M42.1 29.5L39.5 27L34.3 22.1C33.7 21.5 32.7 21.5 32.1 22.1L25.9 28L24.3 29.5L23.2 30.5L24.3 31.5L25.9 33L32.1 38.9C32.7 39.5 33.7 39.5 34.3 38.9L39.5 34L42.1 31.5L43.2 30.5L42.1 29.5Z" fill="#FFC908"/>
<path d="M42.1 9L39.5 6.5L34.3 1.6C33.7 0.999998 32.7 0.999998 32.1 1.6L25.9 7.5L24.3 9L23.2 10L24.3 11L25.9 12.5L32.1 18.4C32.7 19 33.7 19 34.3 18.4L39.5 13.5L42.1 11L43.2 10L42.1 9Z" fill="#584F75"/>
<path d="M63.7 29.5L61.1 27L55.9 22.1C55.3 21.5 54.3 21.5 53.7 22.1L47.6 28L46 29.5L44.9 30.5L46 31.5L47.6 33L53.8 38.9C54.4 39.5 55.4 39.5 56 38.9L61.2 34L63.8 31.5L64.9 30.5L63.7 29.5Z" fill="#6CAB36"/>
<path d="M20.5 29.5L17.9 27L12.7 22.1C12.1 21.5 11.1 21.5 10.5 22.1L4.30001 28L2.70001 29.5L1.60001 30.5L2.70001 31.5L4.30001 33L10.5 38.9C11.1 39.5 12.1 39.5 12.7 38.9L17.9 34L20.5 31.5L21.6 30.5L20.5 29.5Z" fill="#D14F53"/>
<path d="M53 19.3L50.4 16.8L45.2 11.9C44.6 11.3 43.6 11.3 43 11.9L36.8 17.8L35.2 19.3L34.1 20.3L35.2 21.3L36.8 22.8L43 28.7C43.6 29.3 44.6 29.3 45.2 28.7L50.4 23.8L53 21.3L54.1 20.3L53 19.3Z" fill="#8EB8EE"/>
<path d="M31.3 19.3L28.7 16.8L23.5 11.9C22.9 11.3 21.9 11.3 21.3 11.9L15.1 17.8L13.5 19.3L12.4 20.3L13.5 21.3L15.1 22.8L21.3 28.7C21.9 29.3 22.9 29.3 23.5 28.7L28.7 23.8L31.3 21.3L32.4 20.3L31.3 19.3Z" fill="#BBB6E8"/>
</svg>
